Coordinates
version=1
nRows=31
nColumns=38
inDegrees=no

Units are S.I. units (second, meters, Newtons, ...)
If the header above contains a line with 'inDegrees', this indicates whether rotational values are in degrees (yes) or radians (no).

endheader
time	pelvis_tilt	pelvis_list	pelvis_rotation	pelvis_tx	pelvis_ty	pelvis_tz	hip_flexion_r	hip_adduction_r	hip_rotation_r	knee_angle_r	ankle_angle_r	subtalar_angle_r	mtp_angle_r	hip_flexion_l	hip_adduction_l	hip_rotation_l	knee_angle_l	ankle_angle_l	subtalar_angle_l	mtp_angle_l	lumbar_extension	lumbar_bending	lumbar_rotation	arm_flex_r	arm_add_r	arm_rot_r	elbow_flex_r	pro_sup_r	wrist_flex_r	wrist_dev_r	arm_flex_l	arm_add_l	arm_rot_l	elbow_flex_l	pro_sup_l	wrist_flex_l	wrist_dev_l
3.11	-0.261909	-0.0273873	-0.160062	0.988905	0.988554	-0.3331	0.731795	0.0791038	-0.2423	-0.7089	0.294661	0.1	0.00542556	0.417179	-0.0584535	-0.125774	-1.94224	0.00134449	0.1	-0.0300777	0.0317159	0.113806	0.120079	-0.738834	-0.326009	-0.248144	1.96547	1.67096	-0.0212143	0.00244308	-0.521386	-0.269502	-0.0319679	2.03571	1.8592	0.0715747	-0.00496239
3.12	-0.272425	-0.0313072	-0.161784	0.983976	0.981865	-0.333237	0.726922	0.089067	-0.203632	-0.771241	0.371962	0.1	0.00542556	0.504487	-0.0781075	-0.117983	-2.01463	0.0419902	0.1	-0.0300777	0.0324688	0.118123	0.141307	-0.681894	-0.340871	-0.223522	1.94113	1.67994	-0.0212143	0.00244308	-0.526817	-0.272824	-0.0296314	1.96645	1.89285	0.0715747	-0.00496239
3.13	-0.281103	-0.0332212	-0.160914	0.979132	0.976313	-0.333618	0.713581	0.0953858	-0.168376	-0.821853	0.447272	0.1	0.00542556	0.5922	-0.0924072	-0.105628	-2.07016	0.0799443	0.1	-0.0300777	0.0323218	0.119405	0.16046	-0.621559	-0.355349	-0.197342	1.91633	1.68756	-0.0212143	0.00244308	-0.534179	-0.275685	-0.0288768	1.90141	1.92275	0.0715747	-0.00496239
3.14	-0.287736	-0.0329792	-0.157202	0.974614	0.972099	-0.33419	0.690107	0.0972101	-0.139258	-0.857155	0.51478	0.1	0.00542556	0.678411	-0.100798	-0.0904214	-2.10741	0.113969	0.1	-0.0300777	0.0317246	0.11738	0.177279	-0.560239	-0.368459	-0.171182	1.89429	1.69483	-0.0212143	0.00244308	-0.544845	-0.278463	-0.0299411	1.84448	1.94559	0.0715747	-0.00496239
3.15	-0.292485	-0.0305719	-0.150652	0.970696	0.96939	-0.334891	0.655922	0.0941443	-0.118068	-0.875323	0.569544	0.1	0.00542556	0.761349	-0.103335	-0.0743684	-2.12564	0.143298	0.1	-0.0300777	0.031411	0.111988	0.191853	-0.500727	-0.379122	-0.146877	1.87846	1.70293	-0.0212143	0.00244308	-0.560043	-0.281604	-0.0330304	1.79929	1.95879	0.0715747	-0.00496239
3.16	-0.295776	-0.0261091	-0.141523	0.967606	0.968249	-0.335659	0.611438	0.0863059	-0.105607	-0.876154	0.607521	0.1	0.00542556	0.839422	-0.100601	-0.0595294	-2.12477	0.167621	0.1	-0.0300777	0.0322138	0.103344	0.204509	-0.445739	-0.386377	-0.126159	1.87198	1.71316	-0.0212143	0.00244308	-0.580702	-0.285484	-0.038365	1.76867	1.96127	0.0715747	-0.00496239
3.17	-0.298176	-0.0198101	-0.13025	0.9655	0.968626	-0.336433	0.557829	0.0742883	-0.101801	-0.860739	0.625495	0.1	0.00542556	0.911253	-0.093545	-0.0477614	-2.10534	0.187101	0.1	-0.0300777	0.0348836	0.091717	0.215622	-0.397456	-0.389589	-0.11028	1.87709	1.7269	-0.0212143	0.00244308	-0.607349	-0.290277	-0.046213	1.75418	1.95379	0.0715747	-0.00496239
3.18	-0.300246	-0.0120124	-0.11732	0.964454	0.970394	-0.337168	0.496786	0.0590485	-0.105929	-0.8311	0.621118	0.1	0.00542556	0.975724	-0.0832834	-0.0404774	-2.06841	0.202401	0.1	-0.0300777	0.039947	0.0775258	0.225433	-0.357199	-0.388608	-0.0997233	1.89486	1.7455	-0.0212143	0.00244308	-0.640043	-0.295877	-0.0568711	1.75583	1.93875	0.0715747	-0.00496239
3.19	-0.302445	-0.00317145	-0.103165	0.964455	0.973364	-0.337842	0.430292	0.0417722	-0.116841	-0.789895	0.593083	0.1	0.00542556	1.03201	-0.0708931	-0.0384626	-2.01547	0.214581	0.1	-0.0300777	0.0476079	0.0613388	0.233967	-0.325331	-0.383818	-0.0941251	1.925	1.77004	-0.0212143	0.00244308	-0.678338	-0.301908	-0.0705863	1.77216	1.91953	0.0715747	-0.00496239
3.2	-0.305059	0.00617311	-0.0880901	0.965417	0.977296	-0.33847	0.360482	0.0237474	-0.133056	-0.74024	0.541375	0.1	0.00542556	1.0796	-0.0572594	-0.041816	-1.94823	0.22494	0.1	-0.0300777	0.0577036	0.0438668	0.241063	-0.301389	-0.376084	-0.0924017	1.96607	1.80115	-0.0212143	0.00244308	-0.721269	-0.307803	-0.0874437	1.80049	1.89955	0.0715747	-0.00496239
3.21	-0.308133	0.0154508	-0.0723026	0.967202	0.981885	-0.339103	0.28957	0.00624175	-0.15279	-0.68566	0.467562	0.1	0.00542556	1.11824	-0.0430103	-0.050022	-1.86853	0.234816	0.1	-0.0300777	0.0697425	0.0259317	0.246503	-0.284364	-0.366606	-0.093039	2.01574	1.83876	-0.0212143	0.00244308	-0.767392	-0.31293	-0.107265	1.83745	1.88141	0.0715747	-0.00496239
3.22	-0.311511	0.0240572	-0.0560031	0.96963	0.986797	-0.339796	0.219829	-0.00959784	-0.173871	-0.630128	0.375061	0.1	0.00542556	1.14793	-0.0285265	-0.062117	-1.7782	0.245366	0.1	-0.0300777	0.0829761	0.0083822	0.250167	-0.273019	-0.356713	-0.0944288	2.07114	1.88199	-0.0212143	0.00244308	-0.81486	-0.316717	-0.129569	1.87941	1.86661	0.0715747	-0.00496239
3.23	-0.314954	0.0314206	-0.0394622	0.972475	0.9917	-0.340594	0.153536	-0.0227856	-0.193677	-0.578056	0.269193	0.1	0.00542556	1.16887	-0.01405	-0.0769093	-1.67899	0.257387	0.1	-0.0300777	0.0964742	-0.00796393	0.252152	-0.266151	-0.347653	-0.0951572	2.12914	1.92904	-0.0212143	0.00244308	-0.861562	-0.318739	-0.153603	1.92299	1.85563	0.0715747	-0.00496239
3.24	-0.31815	0.0370629	-0.023076	0.975468	0.99633	-0.341506	0.092894	-0.0325099	-0.209238	-0.534139	0.156932	0.1	0.00542556	1.18135	0.000183697	-0.0931946	-1.5726	0.271197	0.1	-0.0300777	0.109247	-0.0223667	0.252806	-0.262764	-0.340407	-0.0941914	2.18655	1.9774	-0.0212143	0.00244308	-0.905298	-0.318762	-0.178433	1.96534	1.84834	0.0715747	-0.00496239
3.25	-0.320755	0.0406099	-0.00736826	0.978343	1.00051	-0.342492	0.0398811	-0.038132	-0.217517	-0.503003	0.0463022	0.1	0.00542556	1.18573	0.0138407	-0.10994	-1.46068	0.286637	0.1	-0.0300777	0.120352	-0.0342171	0.252657	-0.262138	-0.335566	-0.0909629	2.24026	2.02403	-0.0212143	0.00244308	-0.943983	-0.316732	-0.203046	2.00427	1.84443	0.0715747	-0.00496239
3.26	-0.322444	0.0418073	0.00708638	0.980886	1.00412	-0.343468	-0.00393191	-0.0392218	-0.215993	-0.488746	-0.054562	0.1	0.00542556	1.18244	0.0264797	-0.12638	-1.345	0.303135	0.1	-0.0300777	0.128975	-0.0430843	0.252266	-0.263834	-0.333281	-0.0853757	2.28737	2.06569	-0.0212143	0.00244308	-0.975837	-0.312746	-0.226454	2.03835	1.84364	0.0715747	-0.00496239
3.27	-0.322943	0.0405702	0.019797	0.982953	1.0071	-0.344344	-0.0375269	-0.0356277	-0.203353	-0.494468	-0.13859	0.1	0.00542556	1.172	0.0376402	-0.142024	-1.22752	0.319791	0.1	-0.0300777	0.134515	-0.0487545	0.252048	-0.267659	-0.333276	-0.0777748	2.32533	2.09932	-0.0212143	0.00244308	-0.999556	-0.307013	-0.247772	2.06678	1.84575	0.0715747	-0.00496239
3.28	-0.322046	0.037007	0.0304751	0.984479	1.00942	-0.345051	-0.0605072	-0.0275532	-0.179942	-0.5219	-0.200994	0.1	0.00542556	1.15503	0.0469616	-0.15661	-1.11056	0.335503	0.1	-0.0300777	0.136643	-0.0512782	0.252152	-0.273606	-0.334932	-0.0688864	2.35207	2.12241	-0.0212143	0.00244308	-1.01441	-0.299826	-0.266278	2.08933	1.85053	0.0715747	-0.00496239
3.29	-0.319648	0.0314331	0.039089	0.985471	1.01106	-0.345555	-0.0730559	-0.0156506	-0.147961	-0.571269	-0.240081	0.1	0.00542556	1.13238	0.0542808	-0.170024	-0.996804	0.349023	0.1	-0.0300777	0.135349	-0.0509901	0.252426	-0.281775	-0.337404	-0.0597108	2.36619	2.13331	-0.0212143	0.00244308	-1.02027	-0.291546	-0.281468	2.10613	1.85758	0.0715747	-0.00496239
3.3	-0.315791	0.0243725	0.0458317	0.985986	1.01199	-0.345878	-0.0758115	-0.00103477	-0.111112	-0.641374	-0.257363	0.1	0.00542556	1.10514	0.0596204	-0.182268	-0.889359	0.359071	0.1	-0.0300777	0.130932	-0.0484752	0.25249	-0.292288	-0.339788	-0.0513591	2.367	2.13143	-0.0212143	0.00244308	-1.01757	-0.282584	-0.293093	2.11761	1.86624	0.0715747	-0.00496239
3.31	-0.310711	0.0164932	0.0510184	0.986084	1.01217	-0.346075	-0.0697078	0.0148167	-0.0737508	-0.729824	-0.256844	0.1	0.00542556	1.07463	0.0630815	-0.193499	-0.791633	0.36453	0.1	-0.0300777	0.123947	-0.0444927	0.251853	-0.305184	-0.341282	-0.0448513	2.35451	2.1174	-0.0212143	0.00244308	-1.00719	-0.273368	-0.30116	2.12434	1.8756	0.0715747	-0.00496239
3.32	-0.304786	0.00848955	0.0549784	0.98584	1.01153	-0.34618	-0.0557849	0.030206	-0.0400036	-0.833364	-0.243728	0.1	0.00542556	1.04237	0.0647866	-0.203981	-0.707146	0.364573	0.1	-0.0300777	0.115132	-0.0398943	0.25003	-0.320329	-0.341325	-0.0409223	2.32933	2.09309	-0.0212143	0.00244308	-0.990296	-0.264304	-0.305897	2.12685	1.88461	0.0715747	-0.00496239
3.33	-0.298475	0.00103382	0.0579842	0.985323	1.01004	-0.346225	-0.0350235	0.0434344	-0.0129995	-0.94826	-0.223006	0.1	0.00542556	1.00998	0.0648448	-0.214013	-0.639246	0.358843	0.1	-0.0300777	0.105321	-0.0355228	0.246608	-0.337346	-0.339666	-0.0398914	2.29248	2.06163	-0.0212143	0.00244308	-0.968119	-0.255743	-0.307676	2.12559	1.8921	0.0715747	-0.00496239
3.34	-0.292275	-0.00526755	0.0602404	0.984584	1.00761	-0.346219	-0.00821993	0.0530015	0.00556255	-1.07066	-0.198396	0.1	0.00542556	0.979031	0.0633655	-0.223887	-0.590793	0.347699	0.1	-0.0300777	0.0953113	-0.0321444	0.241253	-0.355592	-0.336351	-0.04163	2.24521	2.02708	-0.0212143	0.00244308	-0.941784	-0.247964	-0.306916	2.12076	1.89701	0.0715747	-0.00496239
3.35	-0.286664	-0.00989902	0.0619244	0.983648	1.00422	-0.346164	0.0240926	0.0577363	0.0154463	-1.19691	-0.171974	0.1	0.00542556	0.950878	0.0605732	-0.233722	-0.56382	0.332502	0.1	-0.0300777	0.085753	-0.0304348	0.233678	-0.374202	-0.331644	-0.0456309	2.18881	1.994	-0.0212143	0.00244308	-0.91215	-0.241172	-0.303994	2.11231	1.89843	0.0715747	-0.00496239
3.36	-0.282035	-0.0124249	0.0632512	0.982509	0.999838	-0.346064	0.0616738	0.0568775	0.0176372	-1.32373	-0.144418	0.1	0.00542556	0.926502	0.0569405	-0.24329	-0.559216	0.315919	0.1	-0.0300777	0.0770592	-0.0309752	0.223598	-0.392189	-0.32591	-0.0511501	2.12454	1.96671	-0.0212143	0.00244308	-0.879717	-0.235527	-0.299184	2.09994	1.89577	0.0715747	-0.00496239
3.37	-0.278651	-0.0124806	0.0645018	0.981123	0.994475	-0.345925	0.104538	0.0501129	0.0139678	-1.44829	-0.115621	0.1	0.00542556	0.906324	0.0532427	-0.251978	-0.576432	0.301945	0.1	-0.0300777	0.069351	-0.0342385	0.210742	-0.408605	-0.319514	-0.0573726	2.05371	1.94856	-0.0212143	0.00244308	-0.84462	-0.231158	-0.292638	2.08328	1.88886	0.0715747	-0.00496239
3.38	-0.276608	-0.00980823	0.065972	0.979433	0.988283	-0.345753	0.15286	0.0376232	0.0067526	-1.56819	-0.0853283	0.1	0.00542556	0.890028	0.0504944	-0.258843	-0.613205	0.295358	0.1	-0.0300777	0.0624659	-0.0405361	0.194933	-0.422728	-0.312766	-0.0635694	1.97777	1.9412	-0.0212143	0.00244308	-0.806718	-0.228179	-0.284414	2.06204	1.87802	0.0715747	-0.00496239
3.39	-0.275803	-0.00433861	0.0678436	0.977368	0.981674	-0.345553	0.206843	0.0201308	-0.00151699	-1.68129	-0.0535767	0.1	0.00542556	0.876446	0.04972	-0.262914	-0.665443	0.300596	0.1	-0.0300777	0.0560421	-0.0499212	0.176232	-0.434254	-0.305917	-0.0692207	1.89854	1.94429	-0.0212143	0.00244308	-0.765771	-0.226654	-0.274548	2.03628	1.8641	0.0715747	-0.00496239
3.4	-0.275882	0.00374016	0.0700378	0.974899	0.975268	-0.34531	0.266566	-0.00106862	-0.00843562	-1.78563	-0.0208485	0.1	0.00542556	0.863601	0.0516461	-0.263565	-0.727428	0.320417	0.1	-0.0300777	0.0496838	-0.0620652	0.155058	-0.443443	-0.299206	-0.0740868	1.81838	1.95542	-0.0212143	0.00244308	-0.721686	-0.226545	-0.263157	2.00669	1.84844	0.0715747	-0.00496239
3.41	-0.276458	0.0139627	0.0721598	0.972039	0.969549	-0.345029	0.331823	-0.0241511	-0.0119398	-1.87928	0.0120432	0.1	0.00542556	0.848908	0.0564586	-0.260683	-0.792424	0.354975	0.1	-0.0300777	0.0430554	-0.0761678	0.132226	-0.451153	-0.292922	-0.0782181	1.74027	1.97041	-0.0212143	0.00244308	-0.67478	-0.227635	-0.250557	1.97476	1.83259	0.0715747	-0.00496239
